HIERARCHY
ROOT Hips
{
	OFFSET -3.958830 18.904000 13.208200
	CHANNELS 6 Xposition Yposition Zposition Zrotation Yrotation Xrotation 
	JOINT LHipJoint
	{
		OFFSET 0.000000 0.000000 0.000000
		CHANNELS 3 Zrotation Yrotation Xrotation
		JOINT LeftUpLeg
		{
			OFFSET 1.800000 -1.400000 0.085000
			CHANNELS 3 Zrotation Yrotation Xrotation
			JOINT LeftLeg
			{
				OFFSET 2.215000 -6.000000 0.000000
				CHANNELS 3 Zrotation Yrotation Xrotation
				JOINT LeftFoot
				{
					OFFSET 2.500000 -6.900000 0.000000
					CHANNELS 3 Zrotation Yrotation Xrotation
					JOINT LeftToeBase
					{
						OFFSET 0.200000 -0.500000 1.950000
						CHANNELS 3 Zrotation Yrotation Xrotation
						End Site
						{
							OFFSET 0.000000 0.000000 0.000000
						}
					}
				}
			}
		}
	}
	JOINT RHipJoint
	{
		OFFSET 0.000000 0.000000 0.000000
		CHANNELS 3 Zrotation Yrotation Xrotation
		JOINT RightUpLeg
		{
			OFFSET -1.800000 -1.400000 0.085000
			CHANNELS 3 Zrotation Yrotation Xrotation
			JOINT RightLeg
			{
				OFFSET -2.215000 -6.000000 0.000000
				CHANNELS 3 Zrotation Yrotation Xrotation
				JOINT RightFoot
				{
					OFFSET -2.500000 -6.900000 0.000000
					CHANNELS 3 Zrotation Yrotation Xrotation
					JOINT RightToeBase
					{
						OFFSET -0.200000 -0.500000 1.950000
						CHANNELS 3 Zrotation Yrotation Xrotation
						End Site
						{
							OFFSET 0.000000 0.000000 0.000000
						}
					}
				}
			}
		}
	}
	JOINT LowerBack
	{
		OFFSET 0.000000 0.000000 0.000000
		CHANNELS 3 Zrotation Yrotation Xrotation
		JOINT Spine
		{
			OFFSET -0.087000 1.940000 -0.288900
			CHANNELS 3 Zrotation Yrotation Xrotation
			JOINT Spine1
			{
				OFFSET 0.000000 1.950000 0.060000
				CHANNELS 3 Zrotation Yrotation Xrotation
				JOINT Neck
				{
					OFFSET 0.000000 0.000000 0.000000
					CHANNELS 3 Zrotation Yrotation Xrotation
					JOINT Neck1
					{
						OFFSET 0.000000 1.600000 0.340000
						CHANNELS 3 Zrotation Yrotation Xrotation
						JOINT Head
						{
							OFFSET 0.000000 1.667000 -0.240000
							CHANNELS 3 Zrotation Yrotation Xrotation
							End Site
							{
								OFFSET 0.000000 0.000000 0.000000
							}
						}
					}
				}
				JOINT LeftShoulder
				{
					OFFSET 0.000000 0.000000 0.000000
					CHANNELS 3 Zrotation Yrotation Xrotation
					JOINT LeftArm
					{
						OFFSET 2.700000 1.550000 -0.730000
						CHANNELS 3 Zrotation Yrotation Xrotation
						JOINT LeftForeArm
						{
							OFFSET 5.450000 0.000000 0.000000
							CHANNELS 3 Zrotation Yrotation Xrotation
							JOINT LeftHand
							{
								OFFSET 3.450000 0.000000 0.000000
								CHANNELS 3 Zrotation Yrotation Xrotation
								JOINT LeftHandIndex1
								{
									OFFSET 0.750000 0.000000 0.000000
									CHANNELS 3 Zrotation Yrotation Xrotation
									End Site
									{
										OFFSET 0.000000 0.000000 0.000000
									}
								}
							}
						}
					}
				}
				JOINT RightShoulder
				{
					OFFSET 0.000000 0.000000 0.000000
					CHANNELS 3 Zrotation Yrotation Xrotation
					JOINT RightArm
					{
						OFFSET -2.700000 1.550000 -0.730000
						CHANNELS 3 Zrotation Yrotation Xrotation
						JOINT RightForeArm
						{
							OFFSET -5.450000 0.000000 0.000000
							CHANNELS 3 Zrotation Yrotation Xrotation
							JOINT RightHand
							{
								OFFSET -3.450000 0.000000 0.000000
								CHANNELS 3 Zrotation Yrotation Xrotation
								JOINT RightHandIndex1
								{
									OFFSET -0.750000 0.000000 0.000000
									CHANNELS 3 Zrotation Yrotation Xrotation
									End Site
									{
										OFFSET 0.000000 0.000000 0.000000
									}
								}
							}
						}
					}
				}
			}
		}
	}
}
MOTION
Frames: 12
Frame Time: 0.016667
-1.009600 17.741650 -1.384070 -4.690984 -22.853834 0.871347 -14.532568 11.496758 4.872067 19.363651 -2.587579 -33.249283 -17.006020 14.115485 32.242708 0.461418 7.382338 1.520920 0.300960 0.334020 0.373860 18.719602 -11.840247 2.454459 -16.224556 3.538758 -16.419015 9.085042 -9.409496 30.305653 -0.692248 -4.875452 2.416493 -0.120470 -0.458500 0.042040 -5.043954 2.360692 -8.423593 26.714887 -3.168695 21.432753 -17.573670 4.250395 -3.251439 6.078195 5.576384 -15.629819 21.683529 -21.710366 64.771132 5.148110 -13.301850 -13.451640 -21.677314 -5.917858 4.898386 -57.473156 9.895332 -12.343747 -19.909992 -9.742986 -0.942323 -3.063480 2.653805 0.693890 -0.520250 0.650900 -0.000110 6.978462 8.637813 11.473636 61.554830 -2.200919 -21.339875 -1.574146 55.777574 -5.519868 2.366893 -1.072091 0.143510 0.058130 -0.194540 -0.005400 
-1.019470 17.748400 -1.390760 -4.710324 -22.825530 0.769061 -14.537869 11.561072 4.851850 19.289738 -2.567112 -33.154414 -16.689392 13.972781 32.229358 0.456469 7.324700 1.541848 0.301950 0.336110 0.378590 18.706763 -11.828964 2.454940 -16.095897 3.520219 -16.266590 9.073485 -9.391054 30.273515 -0.693868 -4.858264 2.427139 -0.122040 -0.460290 0.036210 -5.008647 2.243714 -8.418362 26.859587 -3.253961 21.497029 -17.255464 4.251087 -3.384028 6.046907 5.387033 -15.691645 21.219666 -21.322979 65.436642 5.060370 -13.124840 -13.303270 -21.626528 -5.821926 4.934908 -58.099775 10.194608 -12.696937 -20.009960 -10.319568 -0.904356 -3.058913 2.645623 0.694170 -0.524560 0.654250 0.000570 6.981411 8.734321 11.472980 61.176265 -2.375390 -21.364800 -1.920423 55.673410 -5.594033 2.371482 -1.061727 0.144110 0.064130 -0.198330 -0.004130 
-1.042370 17.764590 -1.410600 -4.553541 -22.811043 0.318174 -14.547963 11.684417 4.803540 19.147980 -2.542337 -32.672977 -16.366031 13.749387 32.056703 0.420512 7.227326 1.564504 0.308690 0.354590 0.376820 18.679542 -11.824362 2.445106 -15.934820 3.431557 -15.850794 8.935881 -9.326902 30.203476 -0.704190 -4.824942 2.442696 -0.109110 -0.466970 0.023490 -4.936769 2.037302 -8.397775 26.747884 -3.417429 21.923948 -16.761443 4.203408 -3.346927 6.085217 5.035174 -15.833679 20.420051 -20.699063 67.067582 5.352290 -12.762970 -14.238060 -21.745149 -6.061147 4.997115 -58.882701 10.145030 -13.045380 -19.144672 -11.513036 -0.839739 -3.048975 2.624334 0.716060 -0.538930 0.667160 -0.001100 7.107055 9.253991 11.487696 60.721451 -2.279128 -21.437301 -3.287153 55.357624 -6.104799 2.358135 -1.020799 0.135700 0.086680 -0.193020 -0.007960 
-1.068800 17.780090 -1.433120 -4.512785 -22.954682 -0.083168 -14.554485 11.790726 4.768155 19.239250 -2.441957 -32.186089 -16.158606 13.575408 31.800198 0.390526 7.163273 1.582574 0.322260 0.370410 0.390720 18.660655 -11.819442 2.427059 -15.576260 3.322312 -15.361827 8.659528 -9.117031 29.805415 -0.704822 -4.730026 2.478075 -0.094990 -0.473310 0.014050 -4.889220 1.852115 -8.374720 26.973824 -3.686009 22.197999 -16.540939 4.102462 -2.884584 6.280079 4.676487 -15.996406 19.219018 -19.825927 68.436459 5.002200 -12.348430 -15.120080 -21.724055 -6.612509 5.135934 -59.339137 9.919820 -13.279941 -18.354272 -12.651711 -0.793245 -3.037318 2.610682 0.732230 -0.552270 0.676600 -0.002710 6.820182 10.057252 11.581105 60.370290 -1.719533 -21.305407 -4.247263 54.957440 -6.475495 2.350491 -0.995047 0.128270 0.109730 -0.192820 -0.013230 
-1.097170 17.799640 -1.455710 -4.502349 -23.059077 -0.450182 -14.552084 11.903097 4.721616 19.293521 -2.324090 -31.546345 -16.096570 13.308471 31.107951 0.356723 7.041670 1.626796 0.347800 0.396050 0.404700 18.650536 -11.821487 2.405853 -15.031412 3.207718 -14.849332 8.203444 -8.863419 29.547759 -0.709658 -4.641992 2.516655 -0.074840 -0.472750 0.007410 -4.866993 1.661916 -8.339797 27.357537 -3.977896 22.320028 -16.517742 3.952668 -2.263766 6.485147 4.331066 -16.083269 17.681318 -18.518982 69.982444 5.101750 -11.967150 -15.720260 -22.020938 -7.446237 5.298126 -59.215680 9.510402 -13.205674 -17.752494 -13.375696 -0.766044 -3.017001 2.611728 0.746440 -0.562450 0.683880 0.008920 6.872246 10.949460 11.626613 59.855873 -1.343396 -21.312177 -5.010819 54.953034 -6.830504 2.338211 -0.983353 0.122720 0.130880 -0.203010 -0.013710 
-1.131890 17.811910 -1.478100 -4.459738 -23.215758 -0.673447 -14.553371 11.991687 4.692304 19.460846 -2.161962 -31.025183 -16.139148 13.111557 30.365463 0.348893 6.940422 1.663877 0.371620 0.415950 0.419570 18.641676 -11.808784 2.393341 -14.574050 3.163182 -14.599530 7.810170 -8.663688 29.503998 -0.712707 -4.583599 2.541343 -0.066340 -0.469680 0.012550 -4.845319 1.487810 -8.327544 27.437551 -4.074250 22.337987 -16.243494 3.904012 -1.605314 6.526988 3.971404 -16.221642 15.956121 -16.875700 71.127574 5.274720 -11.455340 -15.634950 -21.653915 -8.275458 5.534717 -59.525612 8.857549 -13.146045 -17.556784 -14.168099 -0.712297 -3.009774 2.635460 0.743630 -0.565850 0.687290 0.019630 6.565933 11.864110 11.702771 59.409033 -0.906635 -21.151529 -5.951004 54.428419 -7.145112 2.335564 -0.984689 0.132970 0.133610 -0.214460 -0.008410 
-1.162700 17.817810 -1.497150 -4.830685 -23.452453 -0.459920 -14.562429 11.997007 4.719461 20.163817 -1.848918 -30.890436 -16.480708 13.129964 29.662595 0.358676 6.936533 1.664673 0.375050 0.430520 0.408780 18.646935 -11.739893 2.392631 -13.921684 3.253923 -14.550082 7.840852 -8.586131 29.457265 -0.709324 -4.554411 2.563383 -0.059320 -0.459550 0.007070 -4.854132 1.364090 -8.342285 28.091721 -4.099875 22.073013 -16.177695 4.012058 -1.045081 6.630962 3.627515 -16.284759 14.248554 -15.350963 71.770701 4.842360 -10.972250 -15.083150 -21.040220 -8.696927 5.600121 -59.739460 8.190478 -12.892385 -17.893187 -14.215196 -0.660962 -3.015726 2.650057 0.724390 -0.559670 0.680530 0.030630 5.842102 12.419039 11.828310 59.329714 -0.712881 -21.121893 -6.998897 54.173257 -7.533321 2.330026 -0.990576 0.138700 0.139770 -0.218420 0.004640 
-1.196860 17.819430 -1.513530 -5.028020 -23.323341 -0.312723 -14.579232 12.000699 4.740361 20.703731 -1.637697 -30.824249 -16.716737 13.105797 29.073200 0.369310 6.916087 1.669742 0.399320 0.464330 0.424860 18.645783 -11.668089 2.386128 -13.506096 3.257119 -14.360162 8.065298 -8.585194 29.290559 -0.715521 -4.548638 2.571815 -0.041520 -0.465810 0.008590 -4.840134 1.222121 -8.358908 28.121975 -4.019761 21.736142 -15.850848 3.970692 -0.464163 6.788325 3.549269 -16.269211 13.167305 -14.052596 71.982640 3.821240 -10.000750 -14.484840 -20.611390 -9.206569 5.666584 -59.734694 7.481286 -12.462035 -18.379451 -13.567926 -0.662765 -3.018927 2.674894 0.702110 -0.554240 0.684090 0.044450 5.225078 12.711714 11.799423 59.250023 -0.503481 -21.010967 -8.142163 53.667560 -7.931137 2.331112 -1.008996 0.152840 0.134360 -0.240730 0.011980 
-1.225280 17.826410 -1.536490 -5.412002 -23.128872 -0.177233 -14.610443 12.031631 4.781681 21.315014 -1.418859 -30.921895 -16.811016 13.052658 28.594685 0.368103 6.918355 1.668134 0.414630 0.483460 0.437940 18.633856 -11.562958 2.376182 -12.739268 3.304497 -14.184960 8.088369 -8.500605 29.224705 -0.721106 -4.518545 2.584212 -0.027070 -0.465540 0.013650 -4.786737 0.974293 -8.391330 28.079587 -4.147821 21.759329 -15.509060 3.880725 0.094474 6.990896 3.239353 -16.335162 11.355256 -12.082874 72.329317 2.586190 -8.659030 -13.885890 -20.143958 -9.915240 5.836115 -59.825731 6.956548 -12.347241 -19.270018 -13.776374 -0.612479 -3.020124 2.700615 0.689430 -0.546710 0.687350 0.055210 4.483116 13.418427 11.801222 59.032716 -0.155631 -20.800058 -9.148672 52.614826 -8.134027 2.332117 -1.022695 0.156880 0.134330 -0.253400 0.014950 
-1.256310 17.833060 -1.557380 -5.649553 -23.027376 -0.006723 -14.641811 12.077968 4.816999 21.752039 -1.186335 -31.025470 -16.864300 12.987673 28.097991 0.356799 6.900247 1.659381 0.418720 0.498200 0.433800 18.619865 -11.466050 2.362761 -11.920155 3.365693 -14.079335 7.814094 -8.321531 29.232973 -0.718153 -4.475078 2.597680 -0.018900 -0.465380 0.026370 -4.726330 0.713750 -8.421758 27.601972 -4.103414 21.788612 -15.137005 3.838632 0.548871 7.102720 2.876370 -16.363363 9.339795 -9.609311 72.592375 1.465990 -6.766160 -13.242240 -19.339637 -10.477433 5.970064 -60.076676 6.409552 -12.163514 -20.251055 -13.411564 -0.632558 -3.038851 2.733548 0.676480 -0.532130 0.686370 0.053410 3.582081 13.923787 11.743178 59.174393 0.130502 -20.648303 -9.544101 51.639092 -8.086981 2.329055 -1.043270 0.166040 0.119540 -0.248240 0.015470 
-1.286770 17.848790 -1.574450 -5.883108 -23.070276 0.031001 -14.687859 12.189579 4.838391 22.116772 -0.933489 -30.948760 -16.811943 12.917293 27.700551 0.356026 6.888635 1.640666 0.429940 0.515050 0.447650 18.587083 -11.343700 2.341252 -11.115226 3.417901 -13.830840 7.406735 -8.080984 29.176334 -0.727857 -4.400583 2.605545 -0.022150 -0.474650 0.064270 -4.610115 0.305563 -8.445942 26.819726 -4.114023 22.254176 -14.547350 3.734096 0.814547 7.232847 2.107212 -16.265029 6.152483 -6.141834 73.054897 0.216200 -4.222430 -13.486410 -18.552171 -10.634396 5.957721 -60.457927 5.944510 -12.103192 -21.399961 -13.179160 -0.676986 -3.064143 2.776146 0.670810 -0.525020 0.704770 0.040530 2.721664 14.253650 11.514724 59.261434 0.424842 -20.579722 -9.188013 50.930924 -7.729304 2.337352 -1.061209 0.195440 0.093700 -0.236550 0.015390 
-1.323210 17.864110 -1.583850 -5.969673 -22.915583 0.199975 -14.735779 12.304342 4.858613 22.288646 -0.792337 -31.036137 -16.695479 12.763040 27.187463 0.304427 6.875060 1.633525 0.389410 0.462460 0.422480 18.554230 -11.210275 2.315589 -10.467870 3.399318 -13.578062 7.125615 -7.889530 28.895632 -0.700901 -4.337646 2.618739 -0.037400 -0.446840 0.083800 -4.492174 -0.143187 -8.463730 25.699868 -4.041476 22.530866 -13.858521 3.494151 0.756510 7.232815 0.895692 -15.828556 1.818177 -1.764946 72.224297 -1.026100 -1.280360 -13.189630 -17.685148 -9.841546 5.604502 -60.516278 5.522382 -11.848431 -22.968763 -12.854151 -0.704121 -3.125952 2.785505 0.676920 -0.492360 0.677570 0.010240 2.039171 13.802530 11.034866 59.524529 0.600220 -20.485539 -7.868637 50.554629 -6.973708 2.331556 -1.069860 0.172190 0.083980 -0.184990 -0.004510 
